inDegrees=no
num_controls=7
num_derivatives=13
num_iterations=103
num_multipliers=7
num_parameters=0
num_slacks=7
num_states=26
objective=0.512234
objective_accelerations=0.045989
objective_balance=0.002284
objective_effort=0.049720
objective_height=0.402891
objective_ligament=0.011349
solver_duration=1375.940541
status=Solve_Succeeded
success=true
DataType=double
version=3
OpenSimVersion=4.5
endheader
time	/jointset/ground_pelvis/pelvis_tilt/value	/jointset/ground_pelvis/pelvis_tx/value	/jointset/ground_pelvis/pelvis_ty/value	/jointset/hip_l/hip_flexion_l/value	/jointset/hip_l/hip_adduction_l/value	/jointset/hip_l/hip_rotation_l/value	/jointset/back/lumbar_extension/value	/jointset/patellofemoral_l/patellar_flexion_l/value	/jointset/knee_l/knee_flexion_l/value	/jointset/knee_l/knee_adduction_l/value	/jointset/knee_l/knee_rotation_l/value	/jointset/ankle_l/ankle_angle_l/value	/jointset/subtalar_l/subtalar_angle_l/value	/jointset/ground_pelvis/pelvis_tilt/speed	/jointset/ground_pelvis/pelvis_tx/speed	/jointset/ground_pelvis/pelvis_ty/speed	/jointset/hip_l/hip_flexion_l/speed	/jointset/hip_l/hip_adduction_l/speed	/jointset/hip_l/hip_rotation_l/speed	/jointset/back/lumbar_extension/speed	/jointset/patellofemoral_l/patellar_flexion_l/speed	/jointset/knee_l/knee_flexion_l/speed	/jointset/knee_l/knee_adduction_l/speed	/jointset/knee_l/knee_rotation_l/speed	/jointset/ankle_l/ankle_angle_l/speed	/jointset/subtalar_l/subtalar_angle_l/speed	/forceset/tau_hip_flexion_l	/forceset/tau_hip_adduction_l	/forceset/tau_hip_rotation_l	/forceset/tau_knee_flexion_l	/forceset/tau_ankle_angle_l	/forceset/tau_subtalar_angle_l	/forceset/tau_lumbar_extension	lambda_cid13_p0	lambda_cid13_p1	lambda_cid13_p2	lambda_cid13_p3	lambda_cid13_p4	lambda_cid13_p5	lambda_cid14_p0	/jointset/ground_pelvis/pelvis_tilt/accel	/jointset/ground_pelvis/pelvis_tx/accel	/jointset/ground_pelvis/pelvis_ty/accel	/jointset/hip_l/hip_flexion_l/accel	/jointset/hip_l/hip_adduction_l/accel	/jointset/hip_l/hip_rotation_l/accel	/jointset/back/lumbar_extension/accel	/jointset/patellofemoral_l/patellar_flexion_l/accel	/jointset/knee_l/knee_flexion_l/accel	/jointset/knee_l/knee_adduction_l/accel	/jointset/knee_l/knee_rotation_l/accel	/jointset/ankle_l/ankle_angle_l/accel	/jointset/subtalar_l/subtalar_angle_l/accel	gamma_cid13_p0	gamma_cid13_p1	gamma_cid13_p2	gamma_cid13_p3	gamma_cid13_p4	gamma_cid13_p5	gamma_cid14_p0
1.5	-0.04576527237315194	-0.03872595569678097	0.849914337224687	0.7365814204132819	-0.317296805557834	-0.1513430776145915	-0.7968747018076907	0.7185354698608407	0.7185354698608472	-0.1038574058353954	-0.1745243080514132	0.0801893382377393	0.003652141458839307	0.4684551261685835	0.2937161611547532	0.4273878403571925	-2.150022913066437	0.09019802406222316	-0.6055187432937538	0.8401215116348258	-1.852012529777701	-1.852012529777707	-0.1301117798798235	5.164683621052425e-05	-0.2732589633961513	0.01107207980216195	-0.227509951338469	0.03351617917045048	-0.004427622162259145	-0.2023214244790558	0.1111057637151319	0.0294718759705375	0.294306196808376	-7.14581058427385	-13.10342715421365	3.410888268928773	-11.31741687182577	-668.1518825143316	-62.1688811177745	-17.36582095345851	0.09867176625164006	0.7586179477375603	-0.6012904948143571	-0.7988780910396099	0.4175811378168869	-0.220162918397387	1.950415053860638	-0.7901969988988081	-0.7901969988988102	-0.3204447458466192	0.04819096625439546	-0.05939827814040156	0.417708772141969	1.424929805760238e-07	1.318775413538423e-06	-2.993247057653079e-07	1.132377328547747e-07	3.028000151675558e-07	2.123587301256031e-07	2.047144939996002e-07
1.51	-0.04107617631548565	-0.03575115549310777	0.8541573361053374	0.7150432442331485	-0.3163747833315505	-0.1574106330880515	-0.7883776910143098	0.6999779762452091	0.6999779762452122	-0.1051750106763094	-0.174523715199098	0.07745399319850343	0.003782884581959261	0.469290791047098	0.3012093695358701	0.4211250509969614	-2.157322565916318	0.09419960253429291	-0.6079390969314108	0.8591443991726518	-1.859226904176662	-1.859226904176666	-0.1334009734082186	6.094399218322249e-05	-0.2737510972599204	0.01508523017610519	-0.2187057174569557	0.03236868599224346	-0.004294108190581849	-0.1998068682570627	0.1110049064832898	0.02862023595506873	0.286206351009399	-6.923925951761365	-12.84203562506969	3.448744229374639	-11.14028747906145	-663.3300535176736	-62.26908933190981	-17.9968276309121	0.06501482313021707	0.7395304139177225	-0.6517479588297987	-0.652048793428614	0.3902079821164109	-0.2448058406779476	1.857788423465507	-0.6482027740041024	-0.6482027740037337	-0.3316437219921347	-0.02363175020404623	-0.03522895111368367	0.3941704885724146	1.100805328571688e-07	1.492213723208746e-06	-1.05966322878587e-07	1.528039105377254e-07	2.940688647681434e-07	2.320295174400107e-07	1.966179643187069e-07
1.52	-0.0363809234141367	-0.03270245157949964	0.858335112131945	0.6934407635422234	-0.3154129929645016	-0.163500758948735	-0.7796945387816062	0.6813561098628671	0.6813561098628648	-0.1065252048656449	-0.174523215543312	0.07471550521850645	0.003953969672529068	0.4696864949047639	0.3084969031417385	0.4143432695486374	-2.16288381522485	0.09815165221493695	-0.6100328207381893	0.8773497994993544	-1.864887083119995	-1.864887083119996	-0.1366296495628592	3.300752924621253e-05	-0.2738875515484302	0.01914047329212529	-0.2099014835754461	0.03122119281403752	-0.004160594218940513	-0.1972923120350672	0.1109040492514497	0.02776859593960317	0.2781065052104182	-6.702473838175496	-12.58170043046374	3.488061613588049	-10.99098813012633	-658.5349106742725	-62.396653430708	-18.61678778941298	0.01067956208196976	0.71748299268784	-0.705088912432953	-0.4511973827696971	0.4076753795317508	-0.1548369522216742	1.78691761163594	-0.4793579077730634	-0.4793579077730633	-0.3083412710956994	0.04074424247246158	0.01173763691141892	0.4261273205573368	8.118431284352409e-08	1.59667973782413e-06	3.079750438089508e-08	1.828509740117066e-07	2.754707236459623e-07	2.423160805198914e-07	1.87947514030035e-07
1.53	-0.03168396262996731	-0.02958201106329981	0.8624425140995591	0.6717915774318119	-0.3144119071499801	-0.1696101829610508	-0.7708335054054188	0.6626855838370601	0.6626855838370586	-0.1079072972595099	-0.1745231622567461	0.07197744945779683	0.004165854745042307	0.4696350656574075	0.315545025356744	0.4070566108758131	-2.166657088096601	0.1020493485920355	-0.611775349761348	0.894700163079406	-1.868951870432527	-1.868951870432528	-0.1398004193447537	-1.585819236730986e-05	-0.2736693427296947	0.02323342985395122	-0.2011700288807493	0.03002135587672087	-0.00407811505512707	-0.1946380645458763	0.1103957740719192	0.0268984984469897	0.2700019578433306	-6.627968081395191	-12.28867975587045	3.52337870465288	-10.63685331821827	-653.9126545781365	-62.48527682056015	-19.21602775324429	-0.02365415793069863	0.6915933156350206	-0.7524851455039601	-0.2959554470572818	0.3781454762891857	-0.1723112393745738	1.685588832413218	-0.3301361414896485	-0.3301361414897149	-0.3228858136969674	-0.02673524914112742	0.03504890029575659	0.4001352231645851	5.602408476666524e-08	1.627862688943642e-06	1.074296162864366e-07	2.027839786386581e-07	2.463889048808396e-07	2.426319053505874e-07	1.786672730955984e-07
1.54	-0.02698963613622647	-0.02639246602900434	0.8664746433202856	0.6501135459511482	-0.3133723786297874	-0.1757347023360015	-0.7618036697731863	0.6439823905384305	0.6439823905384259	-0.1093213855475925	-0.1745234042813215	0.06924321306446307	0.004418520463007711	0.4691596368185971	0.3223178067608663	0.3992887201711188	-2.168652889275534	0.1058401933487426	-0.6130518932649685	0.9111102507083949	-1.871420537684914	-1.871420537684916	-0.1430288284050715	-2.605470049535518e-05	-0.2731236780733131	0.0272966023825521	-0.1924385741860542	0.02882151893940803	-0.003995635891361097	-0.1919838170566818	0.1098874988923909	0.02602840095438133	0.2618974104762403	-6.557462381946164	-11.99528378177705	3.559007222217229	-10.29220689776523	-649.362523190192	-62.59869721438076	-19.79074309175503	-0.07412035620878263	0.6624148305111599	-0.8013353188069327	-0.09570304420609549	0.3863050554534579	-0.06163984831399903	1.598862421423363	-0.160133895744214	-0.1601338957442135	-0.319869126780356	0.04847808516956596	0.07722880444062437	0.4201705139123177	3.412361992079458e-08	1.658602214782499e-06	1.774251965379501e-07	2.177065926404743e-07	2.261729331528752e-07	2.419824928692558e-07	1.700500639312255e-07
1.55	-0.02230225076045662	-0.02313663270706963	0.8704267657638597	0.6284245669264701	-0.3122953699282256	-0.1818700267139984	-0.752614488710081	0.6252625798912693	0.6252625798912644	-0.1107676137527311	-0.1745237430371114	0.066516138697258	0.004711821006324396	0.4682426557309017	0.3287961303719688	0.3910634706055577	-2.168836952211268	0.1095457837532642	-0.6139517776216381	0.9265600366829562	-1.87226650564936	-1.872266505649362	-0.1462077477667852	-4.606006203462295e-05	-0.2722324301709287	0.03136314189651935	-0.1836730158942121	0.02749936036258371	-0.003993364928762547	-0.1895648850884544	0.10961451179451	0.02507703934817834	0.2538034785573018	-6.434130718233699	-11.67215190034636	3.585677555500905	-9.953125000097627	-645.1065084740786	-62.68495254398352	-20.33712859603249	-0.1117210977098319	0.6326784261081329	-0.8439223429952529	0.06611861463552575	0.360046266227219	-0.09484706468435421	1.493147901049448	-0.005596898809314908	-0.00559689880920307	-0.3152294916163477	-0.0278806844953037	0.1039341987552865	0.3995391530237182	1.597896923236662e-08	1.6888308375806e-06	2.397743381446058e-07	2.268563652698523e-07	2.161719590981576e-07	2.402209591371101e-07	1.62196782675839e-07
1.56	-0.01762628201809408	-0.01981758868908423	0.8742944751982653	0.6067429225790132	-0.3111818332759624	-0.188012486802631	-0.7432757875441146	0.6065425558340579	0.6065425558340577	-0.1122452963816356	-0.1745244100140539	0.06379974909220053	0.005045715641357735	0.4668763101368077	0.3349599459710017	0.3824061183374132	-2.1671859538313	0.1131457834888134	-0.6144790353919433	0.9410142712805946	-1.871463219694385	-1.871463219694386	-0.1493197131584769	-9.169893075804598e-05	-0.2709867256438265	0.03541542072587838	-0.1749074576023767	0.02617720178576004	-0.003991093966138783	-0.1871459531202296	0.1093415246966296	0.02412567774197623	0.2457095466383577	-6.315621675265366	-11.34755238346988	3.611401930671506	-9.616614368336933	-640.9320454661391	-62.78993870391083	-20.85143886598168	-0.1639932574884297	0.5995132280972401	-0.8877558593236052	0.2713092189344311	0.3651869216589855	0.01288546895890457	1.399752146038828	0.1697168881401466	0.1697168881401465	-0.3064783327759318	0.04335138373274871	0.1481201293841413	0.4173183769906669	1.249975655645997e-08	1.663011862477711e-06	2.227464393150521e-07	2.214063506091287e-07	2.16222816334065e-07	2.443825218210289e-07	1.590084629828308e-07
